<svg version="1" xmlns="http://www.w3.org/2000/svg" width="933.333" height="933.333" viewBox="0 0 700 700"><path d="M655.5 62.8c-4.2 1.6-21.7 11.8-205.8 119.1L338 247l-111.8-70.2C76.6 82.9 74.2 81.4 61.1 73.1c-6.3-4-13.7-8.2-16.5-9.3-12.9-5.1-27.6 1.6-32.5 14.7-1.6 4.3-1.8 6.3-1.1 11.1.4 3.3 1.2 6.8 1.6 7.9.7 1.8 44.6 75.5 261.7 439.5 29.7 49.8 55.1 91.8 56.6 93.3 1.4 1.6 4.6 4.1 7.1 5.5 3.7 2.2 5.7 2.7 11.5 2.7 8.1 0 12.9-1.9 18-7.3 3.9-3.9 318.6-530.9 320.3-536.2 1.8-5.4 1.7-14 0-18.1-5.4-12.4-20.3-18.9-32.3-14.1zm8.9 22.8c.9.8 1.6 2.4 1.6 3.5 0 2.3-152.3 258.2-155.7 261.6-2.6 2.7-3.2 2.5-13.3-3.7-28-17.4-117-73.3-124-77.9-8.9-5.9-10.6-8.4-7.3-11.3 2.6-2.4 294.6-173.8 296-173.8.6 0 1.9.7 2.7 1.6z"/></svg>